<svg width="19" height="18" viewBox="0 0 19 18" fill="none" xmlns="http://www.w3.org/2000/svg">
<g id="Group 2442">
<path id="Vector" d="M16.5489 12.012C16.5489 12.012 14.5489 14.182 14.5489 15.512C14.5489 16.0424 14.7596 16.5511 15.1347 16.9262C15.5097 17.3012 16.0185 17.512 16.5489 17.512C17.0793 17.512 17.588 17.3012 17.9631 16.9262C18.3382 16.5511 18.5489 16.0424 18.5489 15.512C18.5489 14.182 16.5489 12.012 16.5489 12.012ZM2.75889 10.512L7.54889 5.72196L12.3389 10.512M14.1089 9.45196L5.16889 0.511963L3.75889 1.92196L6.13889 4.30196L0.988887 9.45196C0.398887 10.012 0.398887 10.982 0.988887 11.572L6.48889 17.072C6.77889 17.362 7.16889 17.512 7.54889 17.512C7.92889 17.512 8.31889 17.362 8.60889 17.072L14.1089 11.572C14.6989 10.982 14.6989 10.012 14.1089 9.45196Z" fill="#51646E"/>
<path id="Vector 167" d="M7.61784 15.5089L2.78784 10.4651H12.3552L7.61784 15.5089Z" fill="#FFA000"/>
</g>
</svg>
